<svg xmlns="http://www.w3.org/2000/svg" viewBox="0 0 510.65 208.32"><defs><style>.cls-1{fill:#df4a1b;}.cls-2{fill:#fdf1f5;}.cls-3{fill:#fff;}</style></defs><g id="Capa_2" data-name="Capa 2"><g id="Capa_1-2" data-name="Capa 1"><rect class="cls-1" width="510.65" height="208.32"/><path class="cls-2" d="M151.84,70.15h9.94l7.7,30.17h.15V70.15h7.05v50.4h-8.13L159,83.76h-.14v36.79h-7.06Z"/><path class="cls-2" d="M190.5,70.15h10.73l8.21,50.4h-7.92l-1.44-10v.14h-9l-1.44,9.86H182.3Zm8.64,33.7-3.52-24.91h-.15L192,103.85Z"/><path class="cls-2" d="M217.94,77.35h-8.28v-7.2h24.48v7.2h-8.28v43.2h-7.92Z"/><path class="cls-2" d="M242.49,118q-3-3.27-3-9.4V70.15h7.92v39a5.46,5.46,0,0,0,1.05,3.74,4.45,4.45,0,0,0,6,0,5.46,5.46,0,0,0,1-3.74v-39h7.63V108.6q0,6.12-3,9.4t-8.79,3.27Q245.51,121.27,242.49,118Z"/><path class="cls-2" d="M270.5,70.15h11.3l5,36.08H287l5-36.08h11.31v50.4h-7.49V82.39h-.14l-5.77,38.16h-6.62l-5.76-38.16h-.14v38.16H270.5Z"/><path class="cls-2" d="M317.15,70.15h10.73l8.21,50.4h-7.92l-1.44-10v.14h-9l-1.44,9.86h-7.35Zm8.64,33.7-3.53-24.91h-.14l-3.46,24.91Z"/><path class="cls-2" d="M341.7,70.15h11.74c4.08,0,7.05.95,8.93,2.85s2.8,4.81,2.8,8.75v3.09q0,7.84-5.18,9.94v.14a6.21,6.21,0,0,1,4.07,3.53,17.81,17.81,0,0,1,1.19,7.13v8.85a33.12,33.12,0,0,0,.14,3.5,8.9,8.9,0,0,0,.72,2.62h-8.06a11.57,11.57,0,0,1-.58-2.3,34,34,0,0,1-.14-3.89v-9.21c0-2.31-.38-3.91-1.12-4.83s-2-1.37-3.85-1.37h-2.74v21.6H341.7Zm10.8,21.6a4.75,4.75,0,0,0,3.57-1.22c.79-.82,1.18-2.18,1.18-4.1V82.54a6.38,6.38,0,0,0-1-4,3.67,3.67,0,0,0-3.06-1.23h-3.6v14.4Z"/><path class="cls-2" d="M372.52,70.15h7.92V91.39l10.08-21.24h7.92L389,88.66l9.57,31.89H390.3l-6.69-22.46-3.17,6.41v16h-7.92Z"/><path class="cls-2" d="M404.13,70.15h21.59v7.2H412.05V90.67h10.87v7.2H412.05v15.48h13.67v7.2H404.13Z"/><path class="cls-2" d="M438.25,77.35H430v-7.2h24.48v7.2h-8.28v43.2h-7.92Z"/><path class="cls-3" d="M166,142.71a3.73,3.73,0,0,1,.74,2.37,3.41,3.41,0,0,1-1.44,2.94,7.22,7.22,0,0,1-4.19,1h-7v-14.7h6.59a6.48,6.48,0,0,1,3.89,1,3.29,3.29,0,0,1,1.38,2.8,3.59,3.59,0,0,1-.54,2,3.41,3.41,0,0,1-1.43,1.28A3.79,3.79,0,0,1,166,142.71Zm-9.8-6.66v4.7h4.3a4.36,4.36,0,0,0,2.49-.6,2.2,2.2,0,0,0,0-3.5,4.36,4.36,0,0,0-2.49-.6Zm7.51,10.71a2.07,2.07,0,0,0,.91-1.85q0-2.46-3.6-2.46h-4.82v4.89H161A5,5,0,0,0,163.66,146.76Z"/><path class="cls-3" d="M170.2,135.4a1.28,1.28,0,0,1-.38-.93,1.3,1.3,0,0,1,.38-.93,1.33,1.33,0,0,1,1-.39,1.36,1.36,0,0,1,1,.37,1.2,1.2,0,0,1,.39.91,1.3,1.3,0,0,1-.39,1,1.47,1.47,0,0,1-2,0Zm0,2.52h2v11.13h-2Z"/><path class="cls-3" d="M186.57,144.15h-9a3.53,3.53,0,0,0,1.3,2.37,4.22,4.22,0,0,0,2.74.89,4.11,4.11,0,0,0,3.21-1.35l1.11,1.31a4.94,4.94,0,0,1-1.88,1.34,6.49,6.49,0,0,1-2.51.46,6.63,6.63,0,0,1-3.13-.72,5.22,5.22,0,0,1-2.11-2,6.25,6.25,0,0,1,0-5.86,5.27,5.27,0,0,1,2-2,5.68,5.68,0,0,1,2.86-.72,5.59,5.59,0,0,1,2.85.72,5.15,5.15,0,0,1,1.95,2,6.16,6.16,0,0,1,.71,3A5.47,5.47,0,0,1,186.57,144.15Zm-7.88-3.76a3.61,3.61,0,0,0-1.15,2.31h7.14a3.6,3.6,0,0,0-1.14-2.3,3.76,3.76,0,0,0-4.85,0Z"/><path class="cls-3" d="M199.25,139a4.85,4.85,0,0,1,1.25,3.6v6.41h-2v-6.18a3.38,3.38,0,0,0-.78-2.43,2.89,2.89,0,0,0-2.22-.82,3.51,3.51,0,0,0-2.59.95,3.73,3.73,0,0,0-.94,2.74v5.74h-2V137.92h1.94v1.68a3.86,3.86,0,0,1,1.64-1.33,5.76,5.76,0,0,1,2.37-.46A4.61,4.61,0,0,1,199.25,139Z"/><path class="cls-3" d="M214.84,144.15h-9a3.56,3.56,0,0,0,1.29,2.37,4.25,4.25,0,0,0,2.74.89,4.11,4.11,0,0,0,3.21-1.35l1.12,1.31a5,5,0,0,1-1.88,1.34,6.52,6.52,0,0,1-2.51.46,6.6,6.6,0,0,1-3.13-.72,5.22,5.22,0,0,1-2.11-2,6.17,6.17,0,0,1,0-5.86,5.25,5.25,0,0,1,2-2,5.74,5.74,0,0,1,2.87-.72,5.58,5.58,0,0,1,2.84.72,5.11,5.11,0,0,1,2,2,6.16,6.16,0,0,1,.7,3A5.12,5.12,0,0,1,214.84,144.15ZM207,140.39a3.56,3.56,0,0,0-1.14,2.31H213a3.57,3.57,0,0,0-1.15-2.3,3.46,3.46,0,0,0-2.42-.89A3.52,3.52,0,0,0,207,140.39Z"/><path class="cls-3" d="M218.77,148.8a5.71,5.71,0,0,1-2-.93l.84-1.6a6.06,6.06,0,0,0,1.79.84,7.31,7.31,0,0,0,2.12.32c1.76,0,2.64-.51,2.64-1.51a1,1,0,0,0-.35-.8,2.22,2.22,0,0,0-.9-.43c-.35-.09-.86-.19-1.52-.31a15.12,15.12,0,0,1-2.19-.48,3.34,3.34,0,0,1-1.46-.92,2.58,2.58,0,0,1-.61-1.83,2.86,2.86,0,0,1,1.26-2.43,5.64,5.64,0,0,1,3.38-.91,9.51,9.51,0,0,1,2.23.27,6,6,0,0,1,1.82.74l-.86,1.59a5.85,5.85,0,0,0-3.21-.88,3.69,3.69,0,0,0-2,.42,1.27,1.27,0,0,0-.68,1.12,1.07,1.07,0,0,0,.38.86,2.43,2.43,0,0,0,.94.46q.56.15,1.56.33a16.66,16.66,0,0,1,2.17.5,3.16,3.16,0,0,1,1.42.89,2.5,2.5,0,0,1,.59,1.76,2.8,2.8,0,0,1-1.29,2.41,6.13,6.13,0,0,1-3.52.89A9.12,9.12,0,0,1,218.77,148.8Z"/><path class="cls-3" d="M235.5,148.39a2.77,2.77,0,0,1-1.09.58,4.31,4.31,0,0,1-1.34.2,3.6,3.6,0,0,1-2.61-.9,3.46,3.46,0,0,1-.92-2.58v-6.12h-1.89v-1.65h1.89v-2.44h2v2.44h3.2v1.65h-3.2v6A2,2,0,0,0,232,147a1.68,1.68,0,0,0,1.29.48,2.42,2.42,0,0,0,1.57-.52Z"/><path class="cls-3" d="M246.06,139a4.39,4.39,0,0,1,1.22,3.38v6.72h-1.91v-1.47a3.14,3.14,0,0,1-1.44,1.18,5.52,5.52,0,0,1-2.21.41,4.62,4.62,0,0,1-3-.9,2.89,2.89,0,0,1-1.13-2.37,3,3,0,0,1,1.07-2.37,5.33,5.33,0,0,1,3.41-.89h3.19v-.4a2.53,2.53,0,0,0-.76-2,3.13,3.13,0,0,0-2.22-.7,5.86,5.86,0,0,0-1.94.33,5,5,0,0,0-1.59.87l-.84-1.51a6,6,0,0,1,2.06-1.06,8.39,8.39,0,0,1,2.54-.37A5,5,0,0,1,246.06,139Zm-2,8.15a2.93,2.93,0,0,0,1.22-1.46v-1.55h-3.11c-1.71,0-2.56.57-2.56,1.72a1.53,1.53,0,0,0,.65,1.32,2.9,2.9,0,0,0,1.8.49A3.7,3.7,0,0,0,244.05,147.1Z"/><path class="cls-3" d="M255,138.31a5.74,5.74,0,0,1,2.5-.5v1.95l-.46,0a3.39,3.39,0,0,0-2.57,1,3.84,3.84,0,0,0-.94,2.78v5.55h-2V137.92h1.93v1.86A3.5,3.5,0,0,1,255,138.31Z"/><path class="cls-3" d="M276.7,137.92l-5.39,12.24a5.61,5.61,0,0,1-1.67,2.39,3.85,3.85,0,0,1-2.3.7,4.74,4.74,0,0,1-1.59-.27,3.29,3.29,0,0,1-1.27-.76l.86-1.52a2.81,2.81,0,0,0,2,.82,2,2,0,0,0,1.23-.38,3.38,3.38,0,0,0,.89-1.34l.36-.78-4.92-11.1H267l3.89,8.9,3.84-8.9Z"/><path class="cls-3" d="M295.31,144.15h-9a3.56,3.56,0,0,0,1.29,2.37,4.25,4.25,0,0,0,2.74.89,4.11,4.11,0,0,0,3.21-1.35l1.12,1.31a5,5,0,0,1-1.88,1.34,6.52,6.52,0,0,1-2.51.46,6.6,6.6,0,0,1-3.13-.72,5.22,5.22,0,0,1-2.11-2,5.79,5.79,0,0,1-.75-2.94,5.94,5.94,0,0,1,.73-2.92,5.25,5.25,0,0,1,2-2,5.74,5.74,0,0,1,2.87-.72,5.64,5.64,0,0,1,2.85.72,5.15,5.15,0,0,1,1.95,2,6.16,6.16,0,0,1,.7,3A5.12,5.12,0,0,1,295.31,144.15Zm-7.88-3.76a3.52,3.52,0,0,0-1.15,2.31h7.14a3.6,3.6,0,0,0-1.14-2.3,3.76,3.76,0,0,0-4.85,0Z"/><path class="cls-3" d="M300.49,148.44a5.37,5.37,0,0,1-2.09-2,6,6,0,0,1,0-5.86,5.34,5.34,0,0,1,2.09-2,6.28,6.28,0,0,1,3-.72,5.77,5.77,0,0,1,2.7.61,4.4,4.4,0,0,1,1.84,1.76l-1.54,1a3.46,3.46,0,0,0-1.3-1.2,3.79,3.79,0,0,0-1.72-.4,4,4,0,0,0-2,.49,3.47,3.47,0,0,0-1.37,1.37,4.17,4.17,0,0,0-.49,2,4.22,4.22,0,0,0,.49,2.07,3.47,3.47,0,0,0,1.37,1.37,3.88,3.88,0,0,0,2,.49,3.66,3.66,0,0,0,1.72-.4,3.46,3.46,0,0,0,1.3-1.2l1.54,1a4.42,4.42,0,0,1-1.84,1.77,5.66,5.66,0,0,1-2.7.62A6.17,6.17,0,0,1,300.49,148.44Z"/><path class="cls-3" d="M312.8,148.44a5.29,5.29,0,0,1-2.06-2,6.1,6.1,0,0,1,0-5.86,5.27,5.27,0,0,1,2.06-2,6.18,6.18,0,0,1,3-.72,6.1,6.1,0,0,1,3,.72,5.31,5.31,0,0,1,2.05,2,6.1,6.1,0,0,1,0,5.86,5.33,5.33,0,0,1-2.05,2,6,6,0,0,1-3,.73A6.07,6.07,0,0,1,312.8,148.44Zm4.91-1.53a3.47,3.47,0,0,0,1.33-1.38,4.62,4.62,0,0,0,0-4.1,3.44,3.44,0,0,0-1.33-1.37,4,4,0,0,0-3.85,0,3.53,3.53,0,0,0-1.34,1.37,4.53,4.53,0,0,0,0,4.1,3.56,3.56,0,0,0,1.34,1.38,4,4,0,0,0,3.85,0Z"/><path class="cls-3" d="M334.19,139a4.85,4.85,0,0,1,1.25,3.6v6.41h-2v-6.18a3.38,3.38,0,0,0-.78-2.43,2.91,2.91,0,0,0-2.23-.82,3.49,3.49,0,0,0-2.58.95,3.74,3.74,0,0,0-.95,2.74v5.74h-2V137.92h1.93v1.68a4,4,0,0,1,1.65-1.33,5.71,5.71,0,0,1,2.36-.46A4.6,4.6,0,0,1,334.19,139Z"/><path class="cls-3" d="M341.55,148.44a5.38,5.38,0,0,1-2.07-2,6.17,6.17,0,0,1,0-5.86,5.36,5.36,0,0,1,2.07-2,6.53,6.53,0,0,1,6,0,5.31,5.31,0,0,1,2.05,2,6.1,6.1,0,0,1,0,5.86,5.33,5.33,0,0,1-2.05,2,6.45,6.45,0,0,1-6,0Zm4.91-1.53a3.47,3.47,0,0,0,1.33-1.38,4.62,4.62,0,0,0,0-4.1,3.44,3.44,0,0,0-1.33-1.37,4,4,0,0,0-3.85,0,3.53,3.53,0,0,0-1.34,1.37,4.45,4.45,0,0,0,0,4.1,3.56,3.56,0,0,0,1.34,1.38,4,4,0,0,0,3.85,0Z"/><path class="cls-3" d="M370.88,139a4.86,4.86,0,0,1,1.23,3.61v6.41h-2v-6.18a3.51,3.51,0,0,0-.74-2.43,2.74,2.74,0,0,0-2.14-.82,3.2,3.2,0,0,0-2.43.95,3.85,3.85,0,0,0-.9,2.74v5.74h-2v-6.18a3.47,3.47,0,0,0-.75-2.43,2.7,2.7,0,0,0-2.13-.82,3.2,3.2,0,0,0-2.43.95,3.81,3.81,0,0,0-.91,2.74v5.74h-2V137.92h1.93v1.65a4,4,0,0,1,1.6-1.31,5.3,5.3,0,0,1,2.24-.45,4.92,4.92,0,0,1,2.31.53,3.71,3.71,0,0,1,1.56,1.53,4.24,4.24,0,0,1,1.75-1.51,5.63,5.63,0,0,1,2.53-.55A4.53,4.53,0,0,1,370.88,139Z"/><path class="cls-3" d="M378.64,133.57h2.56l-3.53,2.73h-1.89Zm-2.29,4.35h2v11.13h-2Z"/><path class="cls-3" d="M390.32,139a4.36,4.36,0,0,1,1.23,3.38v6.72h-1.91v-1.47a3.14,3.14,0,0,1-1.44,1.18,5.52,5.52,0,0,1-2.21.41,4.62,4.62,0,0,1-3-.9,2.89,2.89,0,0,1-1.13-2.37,3,3,0,0,1,1.07-2.37,5.33,5.33,0,0,1,3.41-.89h3.19v-.4a2.57,2.57,0,0,0-.76-2,3.16,3.16,0,0,0-2.23-.7,5.84,5.84,0,0,0-1.93.33,5,5,0,0,0-1.59.87l-.84-1.51a6,6,0,0,1,2.05-1.06,8.5,8.5,0,0,1,2.55-.37A5,5,0,0,1,390.32,139Zm-2,8.15a3,3,0,0,0,1.22-1.46v-1.55h-3.11c-1.71,0-2.56.57-2.56,1.72a1.53,1.53,0,0,0,.65,1.32,2.9,2.9,0,0,0,1.8.49A3.7,3.7,0,0,0,388.32,147.1Z"/><path class="cls-3" d="M102.56,151c-1.22-2-3-1.29-4.92,2.07l-1-1.33-2.09,1.53c-.62-1.78-1.5-2.23-3.15-1.19a5,5,0,0,1-3.2.43c-4.11-.62-8.22-1.34-12.3-2.18-1-.19-1.77-1-2.93-1.68l3.89-2.12c-1.71-.67-3.06,2.1-4.61,0-.2-.27.28-1,.57-1.92a26.68,26.68,0,0,1-2.67,0c-.37,0-1-.35-1-.57-.13-2.19-2.13-2.13-3.4-3,.36-1.39-2.67-6.24-4.73-7.32l1.13-1.84c-1.76-1-1.79-1.73,0-3.16a6.23,6.23,0,0,0-1.14-.09,12.46,12.46,0,0,0-1.61.55c-.09-3.64-.18-6.93-.24-10.23a9.13,9.13,0,0,1,.09-2.09,31,31,0,0,1,.93-3.56c.82-2.54,1.7-5.06,2.55-7.6.16-.49.15-1.14.47-1.48a10.09,10.09,0,0,0,2.79-4.31c.53-1.76,2.94-3,4.48-4.42.75-.71,1.43-1.49,2.14-2.24.25-.26.48-.72.76-.75,3.14-.4,4.84-3.13,7.38-4.41a11.59,11.59,0,0,1,6-1.29c3,.3,6-1.39,9,.29,1.57.89,3.22,1.61,4.84,2.41l.08,1.08c1-.86,1.91-2,3.08-2.49a34.05,34.05,0,0,1,6.21-1.48c.62-.11,1.34.44,2,.42a16.66,16.66,0,0,1,7.22,1.78c.51.22.72,1.13,1.22,1.27,2.22.92,4.69,1.5,6.6,2.86,2.16,1.52,2.7,4,1.92,6.82l1-1.08a7.42,7.42,0,0,1,.46,1.31c.17,1.12.08,2.18,1.29,3,.47.33,0,2-.07,3.31,1.73.92,1.28,4.73-1.7,7.69l2.55-.85-2.16,4.91-.87-.38c.79,1.56,1.72,3.17-.87,3.15-.84,1.65.49,3.91-1.81,5a1,1,0,0,0-.48.75c-.14,3.18-2.5,5.28-4.14,7.53a40.64,40.64,0,0,1-10.17,10.22c-2.43,1.62-4.87,3.22-7.28,4.88A24.39,24.39,0,0,0,102.56,151Zm-8.82-35.4a11.18,11.18,0,0,1-.83,3.23c-.55.91-1.74,1.4-2.45,2.23-1.22,1.42-2.28,3-3.58,4.69-.25.06-1.44.18-1.46.39-.23,2.59-2.81,2.63-4.72,4.45a12.14,12.14,0,0,0,2-.22c3.13-1.08,6.43-1.88,9.32-3.42,2.37-1.27,4.29-2.74,6.6.11-.18.28-.71.8-.61,1,1.63,2.87-3.25,3.48-2.1,6.13-2.21,1.8-4.4,3.62-6.67,5.35-.24.18-.91-.2-1.59-.38a27.94,27.94,0,0,1,0,3.87c-.23,1.61.41,2,1.87,2,2.57,0,5.16.44,7.71.24,6-.47,12-1.34,16.06-6.69a6.81,6.81,0,0,1,.7-.59,69.92,69.92,0,0,0,6.62-6.24,17.46,17.46,0,0,0,3.45-6.32c1.6-5.79,2.72-11.6,1.8-17.78-.8-5.39-4.38-11.55-9.54-13.07-6.88-2-13.83-2.71-20.33,1.54-.32.21-.94,0-1.89-.11l3.86-4a38.21,38.21,0,0,1-4.6,0c-1.85-.25-3.75-1.3-5.46-1a35.64,35.64,0,0,0-10.47,2.87c-6,3.07-10.12,8.18-12.62,14.53.42-.4.79-.76,1.18-1.12,4.33-3.93,8.64-7.89,13-11.76.46-.41,1.34-.34,2-.5l.42.6A26.39,26.39,0,0,1,79,98.19c-1.26,1.07-2.78,1.85-4,3-2.44,2.23-4.8,4.56-7.09,6.95a47.08,47.08,0,0,0-3.1,3.91l.45.51c1.61-.81,3.21-1.64,4.83-2.42Q76.46,107,82.83,104a45,45,0,0,1,5.41-2.43c.85-.27,2.45-.11,2.81.44a3.34,3.34,0,0,1,.07,3.1,25.76,25.76,0,0,1-3.62,3.47c-4.14,3.68-8.93,6.62-13.47,9.84l.49.8A49.18,49.18,0,0,1,79.76,117c3.07-.94,6.25-1.52,9.3-2.49C90.91,113.92,92.46,113.65,93.74,115.58Zm-28.1,14.66C70,138.59,76.94,142.86,86,144.43l-2.62-1.81,2.28-.37a6.91,6.91,0,0,1-1.08-.15,1.15,1.15,0,0,1-.34-.18c.07-4.4,3.63-6.56,6.18-9.72L88,131.92l.23.65a18.72,18.72,0,0,1-2.31,1.28c-1.59.64-3.25,1.09-4.83,1.74-1.94.8-3.5,2.63-5.9,2.16a3.44,3.44,0,0,1-.65-.34l.65-2h-2.3c2-6.57,8.63-8.81,12-13.43a35,35,0,0,0-4.05-.45,5.27,5.27,0,0,0-2.5.71c-2.07,1.2-4,2.62-6.09,3.8s-5.15.66-5.53-.06l1-3.26c.16-.56.14-1.38.51-1.65,1.9-1.41,2.26-4.53,5.23-4.71.45-2.78,3.13-3.26,4.95-4.78l-1.11-.47a16.89,16.89,0,0,1-2.36,1.5c-2.73,1.12-5.49,2.16-8.25,3.2a22.46,22.46,0,0,1-2.43.69c-.58.15-1.33,0-1.73.37s-.15,1-.14,1.57a17.68,17.68,0,0,0,2.55,8.27A10.26,10.26,0,0,1,65.64,130.24Z"/><path class="cls-3" d="M135.65,58.18c-1.66.21-3.33.43-5,.61a17.08,17.08,0,0,0-3.06.26c-3.45,1-5.44,3.93-8,6.17-3.42,3-4.92,7-7.32,10.56-1.13,1.67-1.28,4-1.88,6-.15.5-.29,1-.48,1.66l-3.24-1.07c.83-2.44,2.44-4.93,2.31-7.32-.17-3.08,2.52-4.26,3.14-6.76.55-2.23,2.39-4.15,3.75-6.15a6.44,6.44,0,0,1,1.63-1.24l6-4.16c-.09-.25,0,.08.23.68l.91-1.86,2.73.84-.26-1.05,3-1.16.26,1c1.39-1.18,2.66-2,3.63.31a1.19,1.19,0,0,0,.86.56c1.78.19,1.6,1.05.79,2.17Z"/><path class="cls-3" d="M99.53,87.94c.14-1.1.27-2.2.4-3.31a5.65,5.65,0,0,0,.11-1.08c-.57-6.2-3.19-11.76-5.51-17.42a27,27,0,0,1-.69-2.75c-.18-.61-.53-1.19-.67-1.81-.19-.81-.64-2-.28-2.41.77-.76,2-1.79,3.08-.24a10.34,10.34,0,0,1,1.48,2.43c1.86,5.29,3.89,10.53,5.32,15.94.67,2.53.31,5.4,0,8.07-.12,1-1.35,2-2.07,3Z"/><path class="cls-3" d="M135.6,58.22c.64,1,1.28,1.91,1.91,2.88.12.19.33.46.27.6-.77,1.94-1.54,3.87-2.41,5.77a19.66,19.66,0,0,1-1.49,2.27l-6.49,4.85,2.33.75c-1.45,1.19-2.71,2.25-4,3.27-1,.77-2,1.28-2.29,2.82-.45,2-2.17.92-3,.71l-.76,3.37h-.88c-.2-.57-.4-1.14-.61-1.71s-.45-1.15-.18-1.15c.83-1.19,1.63-2.39,2.5-3.55,2.85-3.82,5.69-7.64,8.61-11.41.53-.69,1.52-1,2.08-1.7,1.1-1.35,2.54-2.43,2.55-4.58,0-1.08,1.24-2.15,1.91-3.23Z"/></g></g></svg>